<svg width="183" height="22" viewBox="0 0 183 22" fill="none" xmlns="http://www.w3.org/2000/svg">
<path d="M22 11C22 11.5523 17.0751 12 11 12C4.92487 12 0 11.5523 0 11C0 10.4477 4.92487 10 11 10C17.0751 10 22 10.4477 22 11Z" fill="white"/>
<path d="M8.5 22C7.67157 22 7 17.0751 7 11C7 4.92487 7.67157 -3.62117e-08 8.5 0C9.32843 3.62117e-08 10 4.92487 10 11C10 17.0751 9.32843 22 8.5 22Z" fill="white"/>
<path d="M6.5 15C5.67157 15 5 13.2091 5 11C5 8.79086 5.67157 7 6.5 7C7.32843 7 8 8.79086 8 11C8 13.2091 7.32843 15 6.5 15Z" fill="white"/>
<path d="M15.5 15C14.6716 15 14 13.2091 14 11C14 8.79086 14.6716 7 15.5 7C16.3284 7 17 8.79086 17 11C17 13.2091 16.3284 15 15.5 15Z" fill="white"/>
<path d="M13.5 20C12.6716 20 12 15.9706 12 11C12 6.02944 12.6716 2 13.5 2C14.3284 2 15 6.02944 15 11C15 15.9706 14.3284 20 13.5 20Z" fill="white"/>
<path d="M45.957 17H39.4434V16.1016C39.9772 16.1016 40.3809 16.043 40.6543 15.9258C40.9277 15.8086 41.1035 15.6393 41.1816 15.418C41.2598 15.1966 41.2988 14.9036 41.2988 14.5391V10.5645H35.1562V14.5391C35.1562 15.0859 35.2702 15.4831 35.498 15.7305C35.7259 15.9779 36.2467 16.1016 37.0605 16.1016V17H30.498V16.1016C31.0254 16.1016 31.4258 16.043 31.6992 15.9258C31.9792 15.8086 32.1582 15.6426 32.2363 15.4277C32.321 15.2064 32.3633 14.9102 32.3633 14.5391V6.21875C32.3633 5.84766 32.3242 5.55794 32.2461 5.34961C32.168 5.13477 31.9954 4.96549 31.7285 4.8418C31.4616 4.7181 31.0514 4.65625 30.498 4.65625V3.75781H37.0605V4.65625C36.2533 4.65625 35.7324 4.77669 35.498 5.01758C35.2702 5.25846 35.1562 5.65885 35.1562 6.21875V9.48047H41.2988V6.21875C41.2988 5.84766 41.263 5.55794 41.1914 5.34961C41.1198 5.13477 40.9505 4.96549 40.6836 4.8418C40.4167 4.7181 40.0033 4.65625 39.4434 4.65625V3.75781H45.957V4.65625C45.4036 4.65625 44.9935 4.7181 44.7266 4.8418C44.4596 4.96549 44.2871 5.13477 44.209 5.34961C44.1374 5.55794 44.1016 5.84766 44.1016 6.21875V14.5391C44.1016 14.8971 44.1341 15.1836 44.1992 15.3984C44.2708 15.6068 44.4434 15.776 44.7168 15.9062C44.9902 16.0365 45.4036 16.1016 45.957 16.1016V17ZM57.7492 16.9414C57.5604 16.9544 57.2316 16.974 56.7629 17C56.2941 17.0326 55.7668 17.0749 55.1809 17.127C54.6014 17.1855 54.1359 17.2507 53.7844 17.3223V15.8965C52.9445 16.86 51.9387 17.3418 50.7668 17.3418C49.9139 17.3418 49.2824 17.1595 48.8723 16.7949C48.4621 16.4303 48.2082 16.0299 48.1105 15.5938C48.0129 15.151 47.9641 14.679 47.9641 14.1777V11.2969C47.9641 10.9128 47.9413 10.6328 47.8957 10.457C47.8501 10.2747 47.7297 10.138 47.5344 10.0469C47.3391 9.94922 47.0168 9.90039 46.5676 9.90039V9.00195H50.4836V14.3828C50.4836 15.4896 50.91 16.043 51.7629 16.043C52.2512 16.043 52.6646 15.8704 53.0031 15.5254C53.3417 15.1738 53.6021 14.8385 53.7844 14.5195V11.2969C53.7844 10.8932 53.7583 10.6035 53.7062 10.4277C53.6607 10.252 53.537 10.1217 53.3352 10.0371C53.1333 9.94596 52.798 9.90039 52.3293 9.90039V9.00195H56.3039V14.8809C56.3039 15.1868 56.3332 15.4147 56.3918 15.5645C56.4504 15.7142 56.5839 15.8314 56.7922 15.916C57.0005 15.9941 57.3195 16.0365 57.7492 16.043V16.9414ZM76.8168 17H71.3969V16.1016C71.8461 16.1016 72.1651 16.0527 72.3539 15.9551C72.5427 15.8509 72.6566 15.7109 72.6957 15.5352C72.7413 15.3529 72.7641 15.0664 72.7641 14.6758V11.7168C72.7641 11.2871 72.6664 10.89 72.4711 10.5254C72.2823 10.1608 71.8461 9.97852 71.1625 9.97852C70.6742 9.97852 70.251 10.1022 69.893 10.3496C69.5349 10.5905 69.2582 10.9258 69.0629 11.3555C68.8741 11.7786 68.7797 12.2539 68.7797 12.7812V14.6758C68.7797 15.0794 68.8025 15.3724 68.848 15.5547C68.9001 15.7305 69.0271 15.8672 69.2289 15.9648C69.4307 16.056 69.7595 16.1016 70.2152 16.1016V17H64.9027V16.1016C65.3389 16.1016 65.6514 16.0527 65.8402 15.9551C66.0355 15.8574 66.1527 15.7174 66.1918 15.5352C66.2374 15.3529 66.2602 15.0664 66.2602 14.6758V11.5996C66.2602 10.916 66.0811 10.4766 65.723 10.2812C65.365 10.0794 65.0297 9.97852 64.7172 9.97852C64.3005 9.97852 63.8969 10.0794 63.5063 10.2812C63.1156 10.4831 62.8194 10.7435 62.6176 11.0625C62.4743 11.2969 62.3799 11.528 62.3344 11.7559C62.2953 11.9837 62.2758 12.2702 62.2758 12.6152V14.6758C62.2758 15.0794 62.2986 15.3724 62.3441 15.5547C62.3962 15.7305 62.5264 15.8672 62.7348 15.9648C62.9431 16.056 63.2719 16.1016 63.7211 16.1016V17H58.3793V16.1016C58.822 16.1016 59.1378 16.056 59.3266 15.9648C59.5219 15.8672 59.6423 15.7272 59.6879 15.5449C59.7335 15.3626 59.7563 15.0729 59.7563 14.6758V11.3359C59.7563 10.724 59.3624 10.418 58.5746 10.418H58.0766V9.51953L62.1977 8.67969C62.2497 9.02474 62.2758 9.51953 62.2758 10.1641C62.738 9.70182 63.2263 9.34049 63.7406 9.08008C64.2615 8.81315 64.8604 8.67969 65.5375 8.67969C66.169 8.67969 66.7745 8.80339 67.3539 9.05078C67.9333 9.29818 68.3695 9.75391 68.6625 10.418C69.2549 9.71484 69.8246 9.24935 70.3715 9.02148C70.9184 8.79362 71.4815 8.67969 72.0609 8.67969C73.0896 8.67969 73.8839 8.92383 74.4438 9.41211C75.0036 9.90039 75.2836 10.6491 75.2836 11.6582V14.6758C75.2836 15.0404 75.2999 15.3171 75.3324 15.5059C75.3715 15.6882 75.4757 15.8346 75.6449 15.9453C75.8207 16.0495 76.0974 16.1016 76.475 16.1016H76.8168V17ZM87.5641 14.9395C87.5641 15.4342 87.4632 15.8574 87.2613 16.209C87.0595 16.554 86.7861 16.8112 86.441 16.9805C86.1025 17.1432 85.7184 17.2246 85.2887 17.2246C84.7418 17.2246 84.2861 17.0977 83.9215 16.8438C83.5569 16.5833 83.3388 16.2741 83.2672 15.916C82.1799 16.7884 81.0862 17.2246 79.9859 17.2246C79.2828 17.2246 78.7066 17.0553 78.2574 16.7168C77.8082 16.3717 77.5836 15.9193 77.5836 15.3594C77.5836 14.8971 77.704 14.4805 77.9449 14.1094C78.1858 13.7318 78.5374 13.3965 78.9996 13.1035C79.4684 12.8105 80.025 12.5534 80.6695 12.332C81.3141 12.1042 82.1181 11.8665 83.0816 11.6191V11.0625C83.0816 10.6003 82.971 10.2389 82.7496 9.97852C82.5348 9.71159 82.1344 9.57812 81.5484 9.57812C81.0471 9.57812 80.6858 9.68229 80.4645 9.89062C80.2431 10.099 80.0966 10.4147 80.025 10.8379C79.9729 11.1374 79.8753 11.3848 79.732 11.5801C79.5953 11.7689 79.3056 11.8633 78.8629 11.8633C78.5895 11.8633 78.3486 11.7852 78.1402 11.6289C77.9319 11.4727 77.8277 11.2415 77.8277 10.9355C77.8277 10.3301 78.1565 9.80273 78.8141 9.35352C79.4716 8.9043 80.4807 8.67969 81.8414 8.67969C83.2737 8.67969 84.2568 8.92057 84.7906 9.40234C85.331 9.88411 85.6012 10.5286 85.6012 11.3359V14.4219C85.6012 14.8125 85.6109 15.099 85.6305 15.2812C85.65 15.4635 85.7021 15.6035 85.7867 15.7012C85.8779 15.7923 86.0178 15.8379 86.2066 15.8379C86.3759 15.8379 86.5224 15.75 86.6461 15.5742C86.7763 15.3984 86.8414 15.1868 86.8414 14.9395H87.5641ZM83.0816 15.0176V12.5957C81.8447 12.9863 81.0569 13.3704 80.7184 13.748C80.3863 14.1191 80.2203 14.4837 80.2203 14.8418C80.2203 15.1413 80.3115 15.3822 80.4938 15.5645C80.676 15.7467 80.9332 15.8379 81.2652 15.8379C81.6233 15.8379 81.9391 15.763 82.2125 15.6133C82.4859 15.4635 82.7757 15.265 83.0816 15.0176ZM98.8875 17H93.8289V16.1016C94.213 16.1016 94.4865 16.0527 94.6492 15.9551C94.8185 15.8509 94.9227 15.7012 94.9617 15.5059C95.0008 15.3105 95.0203 14.9883 95.0203 14.5391V11.7754C95.0203 11.222 94.9389 10.7858 94.7762 10.4668C94.6134 10.1413 94.2814 9.97852 93.7801 9.97852C93.0965 9.97852 92.5854 10.2422 92.2469 10.7695C91.9148 11.2904 91.7488 11.8926 91.7488 12.5762V14.7637C91.7488 15.278 91.8237 15.6296 91.9734 15.8184C92.1232 16.0072 92.4454 16.1016 92.9402 16.1016V17H87.784V16.1016C88.2072 16.1016 88.5197 16.0658 88.7215 15.9941C88.9233 15.916 89.0568 15.7826 89.1219 15.5938C89.187 15.3984 89.2195 15.0924 89.2195 14.6758V11.5215C89.2195 11.0658 89.1316 10.7695 88.9559 10.6328C88.7801 10.4896 88.3895 10.418 87.784 10.418V9.51953L91.5828 8.67969C91.6414 9.05729 91.6707 9.40885 91.6707 9.73438C91.6707 9.81901 91.6674 9.89388 91.6609 9.95898C91.6609 10.0176 91.6609 10.0859 91.6609 10.1641C92.0711 9.72786 92.4975 9.37305 92.9402 9.09961C93.3829 8.81966 93.9363 8.67969 94.6004 8.67969C95.1603 8.67969 95.6616 8.7806 96.1043 8.98242C96.5535 9.18424 96.9051 9.49023 97.159 9.90039C97.4129 10.3105 97.5398 10.8053 97.5398 11.3848V14.6758C97.5398 15.2227 97.6115 15.597 97.7547 15.7988C97.9044 16.0007 98.282 16.1016 98.8875 16.1016V17ZM109.654 13.2012C109.654 13.6113 109.566 14.0475 109.391 14.5098C109.215 14.9655 108.948 15.4049 108.59 15.8281C108.238 16.2448 107.792 16.5866 107.252 16.8535C106.712 17.1139 106.087 17.2441 105.377 17.2441C104.674 17.2441 103.974 17.0911 103.277 16.7852C102.587 16.4792 102.001 16.0234 101.52 15.418C101.311 15.8997 101.178 16.3457 101.119 16.7559H100.221V12.2246H101.119C101.282 12.8757 101.507 13.4876 101.793 14.0605C102.079 14.6335 102.483 15.1283 103.004 15.5449C103.531 15.9551 104.176 16.1602 104.938 16.1602C105.602 16.1602 106.132 15.9779 106.529 15.6133C106.933 15.2487 107.135 14.7897 107.135 14.2363C107.135 13.9238 107.073 13.6504 106.949 13.416C106.826 13.1816 106.646 12.9733 106.412 12.791C106.178 12.6022 105.855 12.4036 105.445 12.1953C105.042 11.9805 104.579 11.7559 104.059 11.5215C103.258 11.1439 102.6 10.763 102.086 10.3789C101.572 9.99479 101.181 9.6237 100.914 9.26562C100.654 8.90104 100.471 8.55599 100.367 8.23047C100.27 7.90495 100.221 7.57617 100.221 7.24414C100.221 6.65169 100.38 6.06901 100.699 5.49609C101.018 4.91667 101.484 4.44466 102.096 4.08008C102.714 3.70898 103.427 3.52344 104.234 3.52344C104.853 3.52344 105.442 3.66341 106.002 3.94336C106.562 4.2168 107.047 4.5944 107.457 5.07617C107.574 4.80273 107.682 4.41862 107.779 3.92383H108.697V7.61523H107.779C107.128 5.60352 105.995 4.59766 104.381 4.59766C103.795 4.59766 103.323 4.75391 102.965 5.06641C102.613 5.3724 102.438 5.76953 102.438 6.25781C102.438 6.64193 102.548 6.97721 102.77 7.26367C102.991 7.54362 103.281 7.78451 103.639 7.98633C104.003 8.18815 104.589 8.47786 105.396 8.85547C106.373 9.31771 107.135 9.7181 107.682 10.0566C108.235 10.3952 108.701 10.8216 109.078 11.3359C109.462 11.8503 109.654 12.472 109.654 13.2012ZM117.443 15.2617C117.091 15.9974 116.681 16.5247 116.212 16.8438C115.743 17.1628 115.193 17.3223 114.562 17.3223C113.793 17.3223 113.227 17.166 112.863 16.8535C112.498 16.541 112.273 16.1927 112.189 15.8086C112.104 15.418 112.062 14.9818 112.062 14.5V9.90039H110.587V9.00195C111.206 9.00195 111.743 8.88477 112.198 8.65039C112.654 8.41602 113.012 8.10026 113.273 7.70312C113.54 7.30599 113.709 6.87956 113.78 6.42383H114.581V9.00195H117.345V9.90039H114.581V14.5586C114.581 15.125 114.617 15.5352 114.689 15.7891C114.767 16.0365 114.952 16.1602 115.245 16.1602C115.558 16.1602 115.815 16.0397 116.017 15.7988C116.219 15.5514 116.414 15.2454 116.603 14.8809L117.443 15.2617ZM128.268 14.9395C128.268 15.4342 128.167 15.8574 127.965 16.209C127.763 16.554 127.49 16.8112 127.145 16.9805C126.806 17.1432 126.422 17.2246 125.993 17.2246C125.446 17.2246 124.99 17.0977 124.625 16.8438C124.261 16.5833 124.043 16.2741 123.971 15.916C122.884 16.7884 121.79 17.2246 120.69 17.2246C119.987 17.2246 119.411 17.0553 118.961 16.7168C118.512 16.3717 118.287 15.9193 118.287 15.3594C118.287 14.8971 118.408 14.4805 118.649 14.1094C118.89 13.7318 119.241 13.3965 119.704 13.1035C120.172 12.8105 120.729 12.5534 121.373 12.332C122.018 12.1042 122.822 11.8665 123.786 11.6191V11.0625C123.786 10.6003 123.675 10.2389 123.454 9.97852C123.239 9.71159 122.838 9.57812 122.252 9.57812C121.751 9.57812 121.39 9.68229 121.168 9.89062C120.947 10.099 120.801 10.4147 120.729 10.8379C120.677 11.1374 120.579 11.3848 120.436 11.5801C120.299 11.7689 120.01 11.8633 119.567 11.8633C119.293 11.8633 119.052 11.7852 118.844 11.6289C118.636 11.4727 118.532 11.2415 118.532 10.9355C118.532 10.3301 118.86 9.80273 119.518 9.35352C120.176 8.9043 121.185 8.67969 122.545 8.67969C123.978 8.67969 124.961 8.92057 125.495 9.40234C126.035 9.88411 126.305 10.5286 126.305 11.3359V14.4219C126.305 14.8125 126.315 15.099 126.334 15.2812C126.354 15.4635 126.406 15.6035 126.491 15.7012C126.582 15.7923 126.722 15.8379 126.911 15.8379C127.08 15.8379 127.226 15.75 127.35 15.5742C127.48 15.3984 127.545 15.1868 127.545 14.9395H128.268ZM123.786 15.0176V12.5957C122.549 12.9863 121.761 13.3704 121.422 13.748C121.09 14.1191 120.924 14.4837 120.924 14.8418C120.924 15.1413 121.015 15.3822 121.198 15.5645C121.38 15.7467 121.637 15.8379 121.969 15.8379C122.327 15.8379 122.643 15.763 122.916 15.6133C123.19 15.4635 123.48 15.265 123.786 15.0176ZM139.591 17H134.533V16.1016C134.917 16.1016 135.19 16.0527 135.353 15.9551C135.522 15.8509 135.627 15.7012 135.666 15.5059C135.705 15.3105 135.724 14.9883 135.724 14.5391V11.7754C135.724 11.222 135.643 10.7858 135.48 10.4668C135.317 10.1413 134.985 9.97852 134.484 9.97852C133.8 9.97852 133.289 10.2422 132.951 10.7695C132.619 11.2904 132.453 11.8926 132.453 12.5762V14.7637C132.453 15.278 132.528 15.6296 132.677 15.8184C132.827 16.0072 133.149 16.1016 133.644 16.1016V17H128.488V16.1016C128.911 16.1016 129.224 16.0658 129.425 15.9941C129.627 15.916 129.761 15.7826 129.826 15.5938C129.891 15.3984 129.923 15.0924 129.923 14.6758V11.5215C129.923 11.0658 129.836 10.7695 129.66 10.6328C129.484 10.4896 129.093 10.418 128.488 10.418V9.51953L132.287 8.67969C132.345 9.05729 132.375 9.40885 132.375 9.73438C132.375 9.81901 132.371 9.89388 132.365 9.95898C132.365 10.0176 132.365 10.0859 132.365 10.1641C132.775 9.72786 133.201 9.37305 133.644 9.09961C134.087 8.81966 134.64 8.67969 135.304 8.67969C135.864 8.67969 136.365 8.7806 136.808 8.98242C137.257 9.18424 137.609 9.49023 137.863 9.90039C138.117 10.3105 138.244 10.8053 138.244 11.3848V14.6758C138.244 15.2227 138.315 15.597 138.459 15.7988C138.608 16.0007 138.986 16.1016 139.591 16.1016V17ZM151.579 16.8828C150.199 16.9414 148.939 17.0879 147.8 17.3223C147.708 17.127 147.65 16.7852 147.624 16.2969C146.79 16.9805 145.876 17.3223 144.88 17.3223C144.111 17.3223 143.399 17.1237 142.741 16.7266C142.09 16.3294 141.569 15.7891 141.179 15.1055C140.794 14.4154 140.602 13.6667 140.602 12.8594C140.602 12.3581 140.687 11.86 140.856 11.3652C141.026 10.8704 141.289 10.418 141.647 10.0078C142.012 9.59115 142.461 9.26562 142.995 9.03125C143.529 8.79688 144.137 8.67969 144.821 8.67969C145.322 8.67969 145.752 8.74154 146.11 8.86523C146.468 8.98893 146.755 9.13216 146.97 9.29492C147.184 9.45117 147.402 9.63997 147.624 9.86133V6.6582C147.624 6.22201 147.588 5.90951 147.516 5.7207C147.445 5.5319 147.308 5.41146 147.106 5.35938C146.911 5.30729 146.589 5.27474 146.139 5.26172V4.36328L150.143 3.52344V14.4609C150.143 14.9297 150.163 15.2552 150.202 15.4375C150.248 15.6198 150.368 15.7533 150.563 15.8379C150.759 15.916 151.097 15.9648 151.579 15.9844V16.8828ZM147.624 15.0371V11.082C147.35 10.75 147.025 10.4473 146.647 10.1738C146.27 9.90039 145.82 9.76367 145.3 9.76367C144.981 9.76367 144.681 9.85156 144.401 10.0273C144.121 10.2031 143.897 10.4277 143.727 10.7012C143.441 11.1504 143.298 11.9089 143.298 12.9766C143.298 14.0573 143.499 14.8711 143.903 15.418C144.313 15.9648 144.821 16.2383 145.427 16.2383C145.863 16.2383 146.27 16.1309 146.647 15.916C147.025 15.7012 147.35 15.4082 147.624 15.0371ZM162.492 14.9395C162.492 15.4342 162.391 15.8574 162.189 16.209C161.988 16.554 161.714 16.8112 161.369 16.9805C161.031 17.1432 160.646 17.2246 160.217 17.2246C159.67 17.2246 159.214 17.0977 158.85 16.8438C158.485 16.5833 158.267 16.2741 158.195 15.916C157.108 16.7884 156.014 17.2246 154.914 17.2246C154.211 17.2246 153.635 17.0553 153.186 16.7168C152.736 16.3717 152.512 15.9193 152.512 15.3594C152.512 14.8971 152.632 14.4805 152.873 14.1094C153.114 13.7318 153.465 13.3965 153.928 13.1035C154.396 12.8105 154.953 12.5534 155.598 12.332C156.242 12.1042 157.046 11.8665 158.01 11.6191V11.0625C158.01 10.6003 157.899 10.2389 157.678 9.97852C157.463 9.71159 157.062 9.57812 156.477 9.57812C155.975 9.57812 155.614 9.68229 155.393 9.89062C155.171 10.099 155.025 10.4147 154.953 10.8379C154.901 11.1374 154.803 11.3848 154.66 11.5801C154.523 11.7689 154.234 11.8633 153.791 11.8633C153.518 11.8633 153.277 11.7852 153.068 11.6289C152.86 11.4727 152.756 11.2415 152.756 10.9355C152.756 10.3301 153.085 9.80273 153.742 9.35352C154.4 8.9043 155.409 8.67969 156.77 8.67969C158.202 8.67969 159.185 8.92057 159.719 9.40234C160.259 9.88411 160.529 10.5286 160.529 11.3359V14.4219C160.529 14.8125 160.539 15.099 160.559 15.2812C160.578 15.4635 160.63 15.6035 160.715 15.7012C160.806 15.7923 160.946 15.8379 161.135 15.8379C161.304 15.8379 161.451 15.75 161.574 15.5742C161.704 15.3984 161.77 15.1868 161.77 14.9395H162.492ZM158.01 15.0176V12.5957C156.773 12.9863 155.985 13.3704 155.646 13.748C155.314 14.1191 155.148 14.4837 155.148 14.8418C155.148 15.1413 155.24 15.3822 155.422 15.5645C155.604 15.7467 155.861 15.8379 156.193 15.8379C156.551 15.8379 156.867 15.763 157.141 15.6133C157.414 15.4635 157.704 15.265 158.01 15.0176ZM171.111 10.2227C171.111 10.6003 170.993 10.8997 170.759 11.1211C170.531 11.3359 170.261 11.4434 169.948 11.4434C169.577 11.4434 169.252 11.2611 168.972 10.8965C168.842 10.7337 168.734 10.6165 168.65 10.5449C168.565 10.4733 168.445 10.4375 168.288 10.4375C167.78 10.4375 167.383 10.7142 167.097 11.2676C166.817 11.8145 166.677 12.3841 166.677 12.9766V14.6758C166.677 15.2227 166.745 15.597 166.882 15.7988C167.025 16.0007 167.396 16.1016 167.995 16.1016H168.513V17H162.448V16.1016H162.956C163.503 16.1016 163.838 15.9974 163.962 15.7891C164.086 15.5807 164.148 15.2096 164.148 14.6758V11.8242C164.148 11.388 164.102 11.0755 164.011 10.8867C163.926 10.6979 163.77 10.5742 163.542 10.5156C163.314 10.4505 162.95 10.418 162.448 10.418V9.51953L166.257 8.67969C166.355 9.01172 166.446 9.7181 166.53 10.7988C166.713 10.4147 166.95 10.0632 167.243 9.74414C167.543 9.42513 167.875 9.16797 168.239 8.97266C168.611 8.77734 168.988 8.67969 169.372 8.67969C169.906 8.67969 170.329 8.82943 170.642 9.12891C170.954 9.42839 171.111 9.79297 171.111 10.2227ZM182.307 16.8828C180.927 16.9414 179.667 17.0879 178.528 17.3223C178.437 17.127 178.378 16.7852 178.352 16.2969C177.519 16.9805 176.604 17.3223 175.608 17.3223C174.84 17.3223 174.127 17.1237 173.469 16.7266C172.818 16.3294 172.297 15.7891 171.907 15.1055C171.523 14.4154 171.33 13.6667 171.33 12.8594C171.33 12.3581 171.415 11.86 171.584 11.3652C171.754 10.8704 172.017 10.418 172.375 10.0078C172.74 9.59115 173.189 9.26562 173.723 9.03125C174.257 8.79688 174.866 8.67969 175.549 8.67969C176.051 8.67969 176.48 8.74154 176.838 8.86523C177.196 8.98893 177.483 9.13216 177.698 9.29492C177.913 9.45117 178.131 9.63997 178.352 9.86133V6.6582C178.352 6.22201 178.316 5.90951 178.245 5.7207C178.173 5.5319 178.036 5.41146 177.834 5.35938C177.639 5.30729 177.317 5.27474 176.868 5.26172V4.36328L180.871 3.52344V14.4609C180.871 14.9297 180.891 15.2552 180.93 15.4375C180.976 15.6198 181.096 15.7533 181.291 15.8379C181.487 15.916 181.825 15.9648 182.307 15.9844V16.8828ZM178.352 15.0371V11.082C178.079 10.75 177.753 10.4473 177.375 10.1738C176.998 9.90039 176.549 9.76367 176.028 9.76367C175.709 9.76367 175.409 9.85156 175.129 10.0273C174.849 10.2031 174.625 10.4277 174.455 10.7012C174.169 11.1504 174.026 11.9089 174.026 12.9766C174.026 14.0573 174.228 14.8711 174.631 15.418C175.041 15.9648 175.549 16.2383 176.155 16.2383C176.591 16.2383 176.998 16.1309 177.375 15.916C177.753 15.7012 178.079 15.4082 178.352 15.0371Z" fill="white"/>
</svg>
