<svg width="22" height="22" viewBox="0 0 22 22" fill="none" xmlns="http://www.w3.org/2000/svg">
<path d="M22 11C22 11.5523 17.0751 12 11 12C4.92487 12 0 11.5523 0 11C0 10.4477 4.92487 10 11 10C17.0751 10 22 10.4477 22 11Z" fill="white"/>
<path d="M8.5 22C7.67157 22 7 17.0751 7 11C7 4.92487 7.67157 -3.62117e-08 8.5 0C9.32843 3.62117e-08 10 4.92487 10 11C10 17.0751 9.32843 22 8.5 22Z" fill="white"/>
<path d="M6.5 15C5.67157 15 5 13.2091 5 11C5 8.79086 5.67157 7 6.5 7C7.32843 7 8 8.79086 8 11C8 13.2091 7.32843 15 6.5 15Z" fill="white"/>
<path d="M15.5 15C14.6716 15 14 13.2091 14 11C14 8.79086 14.6716 7 15.5 7C16.3284 7 17 8.79086 17 11C17 13.2091 16.3284 15 15.5 15Z" fill="white"/>
<path d="M13.5 20C12.6716 20 12 15.9706 12 11C12 6.02944 12.6716 2 13.5 2C14.3284 2 15 6.02944 15 11C15 15.9706 14.3284 20 13.5 20Z" fill="white"/>
</svg>
